<svg xmlns="http://www.w3.org/2000/svg" viewBox="0 0 32 32" id="server"><path d="m21.513 4.901 1.194-1.194a1 1 0 1 0-1.414-1.414L19.755 3.83A8.933 8.933 0 0 0 16 3a8.93 8.93 0 0 0-3.755.831l-1.538-1.538a1 1 0 1 0-1.414 1.414l1.194 1.195C8.37 6.55 7 9.115 7 12a1 1 0 0 0 1 1h16a1 1 0 0 0 1-1c0-2.885-1.37-5.45-3.487-7.099zM13.03 10.5c-.826 0-1.504-.672-1.504-1.5s.663-1.5 1.49-1.5h.014c.827 0 1.496.672 1.496 1.5s-.669 1.5-1.496 1.5zm6 0c-.827 0-1.503-.672-1.503-1.5s.662-1.5 1.487-1.5h.016c.826 0 1.497.672 1.497 1.5s-.67 1.5-1.496 1.5zM29 14H3c-.552 0-1 .336-1 .75v6c0 .414.448.75 1 .75h26c.553 0 1-.336 1-.75v-6c0-.414-.447-.75-1-.75zm-13 4.75H7a1 1 0 0 1 0-2h9a1 1 0 0 1 0 2zm3 0a1.001 1.001 0 0 1 0-2 1.001 1.001 0 0 1 0 2zm3 0a1.001 1.001 0 0 1 0-2 1.001 1.001 0 0 1 0 2zm3 0a1.001 1.001 0 0 1 0-2 1.001 1.001 0 0 1 0 2zm4 3.75H3c-.552 0-1 .336-1 .75v6c0 .414.448.75 1 .75h26c.553 0 1-.336 1-.75v-6c0-.414-.447-.75-1-.75zm-13 4.75H7a1 1 0 0 1 0-2h9a1 1 0 0 1 0 2zm3 0a1.001 1.001 0 0 1 0-2 1.001 1.001 0 0 1 0 2zm3 0a1.001 1.001 0 0 1 0-2 1.001 1.001 0 0 1 0 2zm3 0a1.001 1.001 0 0 1 0-2 1.001 1.001 0 0 1 0 2z"></path></svg>