<svg xmlns="http://www.w3.org/2000/svg" width="32" height="32" id="verified"><path style="line-height:normal;text-indent:0;text-align:start;text-decoration-line:none;text-decoration-style:solid;text-decoration-color:#000;text-transform:none;block-progression:tb;white-space:normal;isolation:auto;mix-blend-mode:normal;solid-color:#000;solid-opacity:1" d="M15.998 2c-.275 0-.386.103-.52.191a3.932 3.932 0 0 0-.408.32c-.284.25-.604.567-.92.884-.315.316-.627.632-.879.869a5.098 5.098 0 0 1-.318.279c-.026.02-.044.028-.064.039-.021 0-.036.002-.065-.004a4.774 4.774 0 0 1-.402-.086c-.327-.08-.747-.203-1.168-.322a19.06 19.06 0 0 0-1.205-.313 3.752 3.752 0 0 0-.506-.076c-.158-.01-.304-.045-.545.096-.237.138-.282.28-.353.424a3.896 3.896 0 0 0-.196.482c-.122.359-.238.793-.353 1.225-.115.432-.229.862-.328 1.193a5.16 5.16 0 0 1-.135.4c-.013.032-.024.047-.035.067-.019.01-.031.02-.059.031-.092.036-.23.08-.393.127-.324.093-.745.198-1.17.305-.424.107-.848.216-1.2.332a3.783 3.783 0 0 0-.477.185c-.143.07-.286.112-.424.354-.136.239-.106.385-.096.545.01.16.038.33.075.515.073.372.188.805.304 1.237.117.431.234.86.313 1.197.04.168.07.313.084.414.004.033.002.052.002.074-.01.019-.017.034-.036.057a4.91 4.91 0 0 1-.275.307c-.234.243-.547.543-.861.847-.314.305-.628.613-.875.889a3.736 3.736 0 0 0-.32.398c-.09.132-.191.244-.19.522.001.275.1.384.19.517.088.134.197.268.322.41.249.285.564.603.88.919.317.315.635.627.872.879.118.125.216.237.279.318.02.026.028.043.039.062 0 .022.003.039-.002.069a4.888 4.888 0 0 1-.086.402c-.081.327-.203.745-.322 1.166-.12.421-.236.844-.313 1.207a3.719 3.719 0 0 0-.078.504c-.01.158-.044.304.096.545.138.237.28.284.424.355.144.072.303.133.482.194.358.122.79.24 1.223.355.432.115.862.227 1.193.326.166.05.308.097.403.135.03.012.045.024.064.035.01.018.02.031.031.059.036.092.08.23.127.393.094.324.198.745.305 1.17.107.424.217.85.332 1.203.058.176.116.334.185.476.07.143.114.286.356.424.239.136.385.103.545.094.16-.01.328-.037.514-.073.37-.074.804-.188 1.236-.304.432-.117.86-.236 1.197-.315.168-.039.315-.068.416-.082.034-.004.055-.002.078-.002.018.01.032.016.053.034.077.062.183.16.305.277.243.234.544.546.85.86.304.313.612.627.888.874.138.124.267.232.398.32.132.09.24.19.518.19a.5.5 0 0 0 .002 0c.275 0 .386-.1.52-.19.133-.088.265-.195.408-.32.284-.25.604-.566.92-.883.315-.316.627-.632.879-.869.125-.118.237-.216.318-.279.026-.02.044-.03.064-.041.021 0 .036-.002.065.004.097.015.238.045.402.086.327.08.747.2 1.168.32.421.12.842.238 1.205.315.182.038.348.065.506.076.158.01.304.047.545-.094.237-.138.282-.28.353-.424.072-.144.135-.305.196-.484.122-.359.238-.79.353-1.223.115-.432.229-.863.328-1.193.05-.166.097-.306.135-.4.012-.031.022-.047.033-.067.019-.01.032-.02.06-.031.093-.036.232-.08.394-.127.324-.093.745-.198 1.17-.305.424-.107.848-.217 1.2-.332.177-.058.335-.116.477-.185.143-.07.286-.114.424-.356.136-.239.106-.383.096-.543-.01-.16-.038-.33-.075-.516a19.923 19.923 0 0 0-.304-1.236c-.117-.432-.234-.86-.313-1.197a5.203 5.203 0 0 1-.084-.414c-.004-.032-.002-.052-.002-.074.01-.019.017-.033.036-.057a4.91 4.91 0 0 1 .275-.307c.234-.243.547-.544.861-.85.314-.304.628-.612.875-.888.124-.138.232-.267.32-.398.09-.132.191-.242.19-.52-.001-.275-.1-.384-.19-.518a3.924 3.924 0 0 0-.322-.41c-.249-.284-.564-.602-.88-.918-.317-.315-.635-.629-.872-.88a5.173 5.173 0 0 1-.279-.317c-.02-.026-.028-.043-.039-.062 0-.022-.003-.039.002-.069.015-.098.045-.238.086-.402.081-.327.203-.745.322-1.166.12-.421.236-.844.313-1.207a3.75 3.75 0 0 0 .078-.506c.01-.158.044-.304-.096-.545-.138-.237-.28-.282-.424-.353a3.851 3.851 0 0 0-.482-.194c-.358-.122-.79-.24-1.223-.355-.432-.115-.862-.227-1.193-.326a5.465 5.465 0 0 1-.403-.135c-.03-.013-.046-.024-.066-.035-.01-.018-.019-.03-.03-.057a4.969 4.969 0 0 1-.126-.393c-.094-.324-.198-.747-.305-1.171a19.082 19.082 0 0 0-.332-1.202 3.738 3.738 0 0 0-.185-.476c-.07-.143-.114-.286-.356-.424-.239-.136-.385-.105-.545-.096-.16.01-.328.037-.514.073-.37.074-.804.188-1.236.304-.432.117-.86.236-1.197.315a5.095 5.095 0 0 1-.416.082c-.034.004-.053.004-.076.004-.018-.011-.033-.017-.055-.036a5.043 5.043 0 0 1-.305-.275c-.243-.234-.544-.548-.85-.861a19.145 19.145 0 0 0-.888-.873 3.773 3.773 0 0 0-.398-.32c-.132-.09-.24-.192-.518-.192a.5.5 0 0 0-.002 0V2zm-.002 1.05c.066.049.149.113.252.206.238.213.538.516.84.826.302.31.606.628.873.885.133.128.255.241.373.336.118.094.2.178.416.236.214.057.329.027.48.01.152-.022.32-.058.504-.102.368-.086.802-.205 1.229-.32.427-.115.848-.227 1.17-.291.143-.028.255-.043.34-.05.033.073.072.17.115.302.1.303.206.717.312 1.137.106.42.212.847.315 1.203.051.178.101.337.156.478.055.141.084.254.242.412.157.157.27.19.412.246.143.057.306.11.487.165.362.109.797.222 1.224.335.428.114.848.23 1.159.336.137.047.24.09.318.125a3 3 0 0 1-.05.32 18.8 18.8 0 0 1-.298 1.14c-.118.416-.24.84-.33 1.199-.044.18-.08.342-.103.492-.023.15-.054.262.004.478.057.214.14.3.234.42.095.121.208.247.338.385.259.275.579.59.892.902.314.313.62.625.836.871.096.11.164.198.213.268-.047.066-.11.15-.203.252-.213.237-.516.536-.826.838-.31.302-.63.606-.887.873a5.62 5.62 0 0 0-.336.375c-.094.118-.178.2-.236.416-.057.214-.028.328-.006.48.022.152.057.318.1.502.086.368.207.802.322 1.229.115.427.225.85.289 1.172.028.142.043.253.05.338-.073.034-.17.074-.302.117-.303.099-.715.206-1.135.312-.42.106-.847.21-1.203.313a5.54 5.54 0 0 0-.478.156c-.141.055-.256.084-.414.242-.157.157-.187.272-.245.414a5.81 5.81 0 0 0-.166.485c-.109.361-.222.797-.335 1.224-.114.428-.229.85-.334 1.16-.047.139-.091.241-.127.319-.081-.01-.184-.022-.319-.051a19.103 19.103 0 0 1-1.14-.297c-.417-.118-.838-.24-1.198-.33a5.717 5.717 0 0 0-.494-.103c-.15-.023-.262-.056-.478 0-.214.057-.298.141-.418.236a5.94 5.94 0 0 0-.387.338c-.275.258-.59.579-.902.892-.313.314-.623.62-.87.836-.11.096-.2.164-.269.213a3.12 3.12 0 0 1-.25-.205 18.75 18.75 0 0 1-.84-.826c-.302-.31-.606-.628-.873-.885a5.63 5.63 0 0 0-.373-.336c-.118-.094-.2-.18-.416-.238-.214-.057-.329-.026-.48 0-.152.022-.32.056-.504.1-.368.086-.802.205-1.229.32-.427.115-.848.225-1.17.289a3.557 3.557 0 0 1-.34.053 3.018 3.018 0 0 1-.115-.303c-.1-.303-.206-.715-.312-1.135-.106-.42-.212-.847-.315-1.203a5.629 5.629 0 0 0-.156-.478c-.055-.141-.084-.254-.242-.413-.157-.156-.27-.188-.412-.246a6.011 6.011 0 0 0-.487-.164c-.362-.109-.797-.222-1.224-.336-.428-.114-.848-.23-1.159-.336a3.258 3.258 0 0 1-.318-.125c.008-.08.022-.185.05-.32.066-.312.18-.722.298-1.139.118-.416.24-.84.33-1.199.044-.18.08-.343.103-.492.023-.15.054-.262-.004-.479-.057-.214-.14-.299-.234-.42a5.883 5.883 0 0 0-.338-.384c-.259-.276-.579-.59-.892-.903-.314-.312-.62-.624-.836-.87a3.163 3.163 0 0 1-.213-.268c.047-.066.11-.15.203-.252.213-.238.516-.536.826-.838.31-.302.63-.606.887-.873.128-.134.241-.257.336-.375.094-.118.178-.2.236-.416.057-.214.028-.329.006-.48a5.843 5.843 0 0 0-.1-.503c-.086-.367-.207-.8-.322-1.228a19.63 19.63 0 0 1-.289-1.172 3.188 3.188 0 0 1-.05-.338c.073-.034.17-.074.302-.117.303-.099.715-.207 1.135-.313.42-.105.847-.21 1.203-.312a5.54 5.54 0 0 0 .478-.156c.141-.055.256-.084.414-.242.157-.157.187-.272.245-.415.057-.142.111-.303.166-.484.109-.362.222-.797.335-1.225.114-.427.229-.85.334-1.16.047-.138.091-.24.127-.318.081.01.184.022.319.05.312.067.724.18 1.14.298.417.118.838.24 1.198.33.18.044.344.08.494.103.15.023.262.056.478 0 .214-.057.298-.141.418-.236A5.94 5.94 0 0 0 13.957 5c.275-.259.59-.58.902-.893.313-.313.623-.62.87-.836.109-.096.197-.164.267-.212V3.05zm.2 4.51a8.443 8.443 0 0 0-8.562 7.338 8.447 8.447 0 0 0 5.653 9.096 8.445 8.445 0 0 0 10.022-3.773.5.5 0 1 0-.866-.5 7.437 7.437 0 0 1-8.836 3.326 7.436 7.436 0 0 1-4.984-8.018 7.436 7.436 0 0 1 6.89-6.453 7.437 7.437 0 0 1 7.675 5.5.5.5 0 1 0 .964-.26 8.449 8.449 0 0 0-7.957-6.255zm4.794 5.665v.002a.5.5 0 0 0-.273.068l-7.533 4.3-1.721-2.947a.5.5 0 1 0-.863.504l1.97 3.375a.5.5 0 0 0 .68.182l7.963-4.547a.5.5 0 0 0-.223-.937zm2.819 3.914a.25.25 0 0 0-.237.209 7.705 7.705 0 0 1-.217.898.25.25 0 1 0 .479.145c.096-.314.173-.632.23-.955a.25.25 0 0 0-.255-.297z" color="#000" enable-background="accumulate" font-family="sans-serif" font-weight="400" overflow="visible"></path></svg>